<?xml version="1.0" encoding="utf-8"?>
<!-- Generator: Adobe Illustrator 18.1.0, SVG Export Plug-In . SVG Version: 6.00 Build 0)  -->
<!DOCTYPE svg PUBLIC "-//W3C//DTD SVG 1.1//EN" "http://www.w3.org/Graphics/SVG/1.1/DTD/svg11.dtd">
<svg version="1.1" id="Layer_1" xmlns="http://www.w3.org/2000/svg" xmlns:xlink="http://www.w3.org/1999/xlink" x="0px" y="0px"
	 viewBox="0 0 100 100" style="enable-background:new 0 0 100 100;" xml:space="preserve">
<style type="text/css">
	.st0{fill:#FFFFFF;}
</style>
<path class="st0" d="M83.4,15.8L83.4,15.8c-4.6-4.6-12-4.6-16.6,0L49.3,33.3L31.7,15.8c-4.6-4.6-12-4.6-16.6,0l0,0
	c-4.6,4.6-4.6,12,0,16.6l17.5,17.5L15.1,67.4c-4.6,4.6-4.6,12,0,16.6l0,0c4.6,4.6,12,4.6,16.6,0l17.5-17.5L66.8,84
	c4.6,4.6,12,4.6,16.6,0l0,0c4.6-4.6,4.6-12,0-16.6L65.8,49.9l17.5-17.5C88,27.8,88,20.3,83.4,15.8z"/>
</svg>
