<?xml version="1.0" encoding="utf-8"?>
<!-- Generator: Adobe Illustrator 18.1.0, SVG Export Plug-In . SVG Version: 6.00 Build 0)  -->
<!DOCTYPE svg PUBLIC "-//W3C//DTD SVG 1.1//EN" "http://www.w3.org/Graphics/SVG/1.1/DTD/svg11.dtd">
<svg version="1.1" id="Layer_1" xmlns="http://www.w3.org/2000/svg" xmlns:xlink="http://www.w3.org/1999/xlink" x="0px" y="0px"
	 viewBox="0 0 100 100" style="enable-background:new 0 0 100 100;" xml:space="preserve">
<style type="text/css">
	.st0{fill:#FFFFFF;}
</style>
<g>
	<path class="st0" d="M35.4,77c-0.3,0-0.5-0.1-0.8-0.2c-0.8-0.4-1-1.4-0.6-2.2l28.8-49.9c0.4-0.8,1.4-1,2.2-0.6
		c0.8,0.4,1,1.4,0.6,2.2L36.7,76.2C36.4,76.7,35.9,77,35.4,77z"/>
	<g>
		<path class="st0" d="M54.5,36.5"/>
		<path class="st0" d="M59.3,36.5"/>
		<path class="st0" d="M43.4,64.5"/>
		<path class="st0" d="M38.7,64.5"/>
		<path class="st0" d="M32.5,64C24.9,64,19,58.3,19,50.6v-0.2C19,42.7,24.9,37,32.5,37h20l4.9-9H30.8C18.5,28,8.6,37.8,8.6,50
			c0,12.2,9.9,22,22.2,22h1.1l4.6-8H32.5z"/>
		<path class="st0" d="M68.2,28H68l-4.9,9H67c7.7,0,14,5.7,14,13.4v0.2C81,58.3,74.7,64,67,64H47l-4.6,8h25.8
			c12.2,0,22.2-9.8,22.2-22C90.4,37.8,80.5,28,68.2,28z"/>
		<path class="st0" d="M38.7,72.4"/>
		<path class="st0" d="M43.3,64.5"/>
		<path class="st0" d="M59.4,36.5"/>
		<path class="st0" d="M64.3,28.1"/>
		<path class="st0" d="M54.7,36.5"/>
		<path class="st0" d="M38.5,64.5"/>
		<path class="st0" d="M59.5,28.1"/>
		<path class="st0" d="M34,72.4"/>
	</g>
</g>
</svg>
