<?xml version="1.0" encoding="utf-8"?>
<!-- Generator: Adobe Illustrator 18.1.0, SVG Export Plug-In . SVG Version: 6.00 Build 0)  -->
<!DOCTYPE svg PUBLIC "-//W3C//DTD SVG 1.1//EN" "http://www.w3.org/Graphics/SVG/1.1/DTD/svg11.dtd">
<svg version="1.1" id="Layer_1" xmlns="http://www.w3.org/2000/svg" xmlns:xlink="http://www.w3.org/1999/xlink" x="0px" y="0px"
	 viewBox="0 0 100 100" style="enable-background:new 0 0 100 100;" xml:space="preserve">
<style type="text/css">
	.st0{fill:#FFFFFF;}
</style>
<path class="st0" d="M32.5,85.9L32.5,85.9c-5.7,0-10.3-4.6-10.3-10.3V24.2c0-5.7,4.6-10.3,10.3-10.3h0c5.7,0,10.3,4.6,10.3,10.3
	v51.4C42.8,81.3,38.2,85.9,32.5,85.9z"/>
<path class="st0" d="M66.6,85.9L66.6,85.9c-5.7,0-10.3-4.6-10.3-10.3V24.2c0-5.7,4.6-10.3,10.3-10.3h0c5.7,0,10.3,4.6,10.3,10.3
	v51.4C76.9,81.3,72.3,85.9,66.6,85.9z"/>
</svg>
