<?xml version="1.0" encoding="utf-8"?>
<!-- Generator: Adobe Illustrator 18.1.0, SVG Export Plug-In . SVG Version: 6.00 Build 0)  -->
<!DOCTYPE svg PUBLIC "-//W3C//DTD SVG 1.1//EN" "http://www.w3.org/Graphics/SVG/1.1/DTD/svg11.dtd">
<svg version="1.1" id="Layer_1" xmlns="http://www.w3.org/2000/svg" xmlns:xlink="http://www.w3.org/1999/xlink" x="0px" y="0px"
	 viewBox="0 0 100 100" style="enable-background:new 0 0 100 100;" xml:space="preserve">
<style type="text/css">
	.st0{fill:#FFFFFF;}
</style>
<g>
	<path class="st0" d="M40.5,15.5L22.8,25.7c-3.8,2.2-3.8,7.7,0,9.9l17.7,10.2c3.8,2.2,8.5-0.6,8.5-4.9v-2.8c9.3,0,16.7,7.7,16.2,17
		c-0.5,8.1-7.2,14.8-15.4,15.1c-9.1,0.3-16.6-7-16.6-16c0-0.1,0-0.3,0-0.4c0.1-3.1-1.5-5.9-4.1-7.4l0,0C23.8,43.2,17,46.8,16.7,53
		c0,0.9,0,1.9,0,2.8c0.9,16.9,14.8,30.5,31.7,30.9c18.4,0.4,33.2-14.3,33.2-32.6c0-18-14.7-32.6-32.7-32.6v-1.1
		C49,16.1,44.3,13.3,40.5,15.5z"/>
</g>
</svg>
